<?xml version="1.0" encoding="utf-8"?>
<!-- Uploaded to: SVG Repo, www.svgrepo.com, Generator: SVG Repo Mixer Tools -->
<!DOCTYPE svg PUBLIC "-//W3C//DTD SVG 1.1//EN" "http://www.w3.org/Graphics/SVG/1.1/DTD/svg11.dtd">
<svg fill="#000000" width="800px" height="800px" viewBox="0 0 1000 1000" version="1.1" xmlns="http://www.w3.org/2000/svg" xmlns:xlink="http://www.w3.org/1999/xlink"  enable-background="new 0 0 1000 1000" xml:space="preserve">

<g>
<g transform="translate(0.000000,511.000000) scale(0.100000,-0.100000)">
<path d="M3379.8,4996.2c0-9.9,71.1-294.4,156.1-632.3l156.1-618.4h-81c-142.3,0-235.1-41.5-349.7-158.1c-211.4-209.4-211.4-422.8,0-632.3c120.5-120.5,207.5-158.1,373.4-158.1h100.8V2564v-233.1l-193.6-23.7c-802.2-92.9-1452.2-673.8-1657.7-1477.9c-33.6-126.5-35.6-320.1-35.6-2768.1v-2629.8l59.3-75.1c33.6-39.5,90.9-88.9,128.4-108.7c65.2-35.6,181.8-37.5,2963.7-37.5c2781.9,0,2898.5,2,2963.7,37.5c37.6,19.7,94.8,69.2,128.4,108.7l59.3,75.1v2629.8c0,2448-2,2641.7-35.5,2768.1c-96.8,375.4-247,640.2-527.6,920.7c-345.8,345.8-709.3,519.6-1179.6,565.1l-144.2,13.8V2562v235.1h100.8c166,0,252.9,37.5,373.4,158.1c106.7,106.7,158.1,207.5,158.1,316.1s-51.4,209.4-158.1,316.1c-116.6,118.5-207.5,158.1-353.7,158.1c-71.1,0-81,5.9-73.1,35.6c5.9,17.8,73.1,286.5,150.2,596.7c77.1,310.2,144.2,578.9,150.2,598.7c9.9,31.6-75.1,33.6-1610.3,33.6C4108.9,5010,3379.8,5004.1,3379.8,4996.2z M4768.8,4670.2c-106.7-51.4-102.7-215.4,5.9-266.7c130.4-63.2,260.8,59.3,205.5,193.6c-13.8,33.6-45.4,69.2-67.2,77.1c-23.7,9.9,177.8,17.8,482.1,17.8c381.3,0,511.7-5.9,480.1-21.7c-108.7-53.3-98.8-225.2,15.8-272.7c124.5-51.4,247,71.1,197.6,195.6c-13.8,31.6-43.5,65.2-67.2,77.1c-35.6,17.8-21.7,21.7,77,21.7l122.5,2l-118.6-474.2l-118.6-474.2l-636.2,2c-458.4,0-622.4,5.9-590.8,21.7c23.7,11.9,53.3,47.4,67.2,79c51.4,126.5-73.1,247-201.5,193.6c-108.7-45.4-122.5-211.4-19.8-266.7c45.4-25.7,19.8-27.7-268.7-29.6h-320.1l-19.8,75.1c-23.7,88.9-195.6,790.3-207.5,839.7c-7.9,31.6,25.7,33.6,507.8,31.6C4672,4691.9,4800.4,4686,4768.8,4670.2z M6541.1,3389.8c25.7-25.7,39.5-65.2,39.5-118.5s-13.8-92.9-39.5-118.5c-39.5-39.5-65.2-39.5-1541.1-39.5c-1475.9,0-1501.6,0-1541.1,39.5c-25.7,25.7-39.5,65.2-39.5,118.5s13.8,92.9,39.5,118.5c39.5,39.5,65.2,39.5,1541.1,39.5C6475.9,3429.4,6501.6,3429.4,6541.1,3389.8z M5948.4,2403.9v-391.2l312.2-11.9c351.7-11.9,466.3-37.5,709.3-154.1c310.2-148.2,567.1-405,715.3-715.2c160-333.9,148.2-85,154.1-3003.2l5.9-2602.1H5000H2154.8l5.9,2602.1c5.9,2918.3-5.9,2669.3,154.1,3003.2c148.2,310.2,405,567.1,715.2,715.2c243,116.6,357.6,142.3,711.3,154.1l310.2,11.9v391.2v393.2H5000h948.4V2403.9z"/>
<path d="M4136.6,4512.1c-108.7-53.3-98.8-225.2,15.8-272.7c175.8-73.1,298.4,195.6,124.5,274.6C4217.6,4539.8,4193.9,4539.8,4136.6,4512.1z"/>
<path d="M5401.1,4196c-108.7-53.3-98.8-225.2,15.8-272.7c175.9-73.1,298.4,195.6,124.5,274.6C5482.1,4223.6,5458.4,4223.6,5401.1,4196z"/>
<path d="M2471,584.2V426.1h1975.8h1975.8v158.1v158.1H4446.8H2471V584.2z"/>
<path d="M6896.8,584.2V426.1h316.1H7529v158.1v158.1h-316.1h-316.1V584.2z"/>
<path d="M8793.6,4061.6v-316.1h-316.1h-316.1v-158.1v-158.1h316.1h316.1v-316.1v-316.1h158.1h158.1v316.1v316.1h316.1h316.1v158.1v158.1h-316.1h-316.1v316.1v316.1h-158.1h-158.1V4061.6z"/>
<path d="M890.3,2164.8v-316.1H574.2H258.1v-158.1v-158.1h316.1h316.1v-316.1V900.3h158.1h158.1v316.1v316.1h316.1h316.1v158.1v158.1h-316.1h-316.1v316.1V2481h-158.1H890.3V2164.8z"/>
</g>
</g>
</svg>